<svg class="logo" version="1.1" xmlns="http://www.w3.org/2000/svg" xmlns:xlink="http://www.w3.org/1999/xlink" x="0px" y="0px" width="200px" height="75px" viewBox="0 0 200 75" enable-background="new 0 0 200 75" xml:space="preserve">
<g id="background">
</g>
<g id="Guides">
</g>
<g id="Template_1">
</g>
<g id="Template_2">
</g>
<g id="Landing_Page">
</g>
<g id="header">
	<g>
		<circle fill="#fff" cx="57.725" cy="48.318" r="8.7"></circle>
		<path fill="#fff" d="M41.234,51.013c-1.803,0-3.465-0.421-4.939-1.249c-1.483-0.832-2.667-1.992-3.519-3.45
			c-0.851-1.458-1.282-3.105-1.282-4.898c0-1.796,0.432-3.444,1.282-4.899c0.851-1.458,2.035-2.619,3.519-3.452
			c1.477-0.83,3.138-1.248,4.939-1.248c1.262,0,2.46,0.205,3.563,0.607c1.136,0.415,2.128,1.041,2.948,1.863
			c0.456,0.456,0.483,1.187,0.063,1.673l-0.284,0.333c-0.22,0.257-0.537,0.415-0.875,0.43c-0.342,0.011-0.669-0.106-0.913-0.34
			c-1.163-1.108-2.636-1.648-4.503-1.648c-1.296,0-2.433,0.29-3.478,0.881c-1.041,0.593-1.837,1.377-2.434,2.402
			c-0.598,1.026-0.887,2.137-0.887,3.397c0,1.257,0.29,2.368,0.887,3.395c0.597,1.025,1.393,1.812,2.434,2.404
			c1.045,0.591,2.182,0.88,3.478,0.88c1.851,0,3.324-0.546,4.503-1.671c0.244-0.234,0.58-0.356,0.912-0.342
			c0.339,0.017,0.656,0.174,0.876,0.429l0.284,0.333c0.42,0.49,0.393,1.219-0.063,1.675c-0.818,0.818-1.813,1.449-2.955,1.871
			C43.679,50.804,42.483,51.013,41.234,51.013z"></path>
		<path fill="#fff" d="M57.725,51.013c-1.802,0-3.465-0.421-4.938-1.249c-1.484-0.832-2.668-1.992-3.52-3.45
			c-0.85-1.458-1.282-3.105-1.282-4.898c0-1.796,0.433-3.444,1.282-4.899c0.852-1.458,2.035-2.619,3.52-3.452
			c1.476-0.83,3.138-1.248,4.938-1.248c1.803,0,3.464,0.417,4.939,1.248c1.482,0.831,2.667,1.993,3.519,3.45
			c0.852,1.457,1.283,3.105,1.283,4.901c0,1.793-0.432,3.441-1.282,4.898c-0.853,1.458-2.038,2.62-3.521,3.45
			C61.189,50.592,59.528,51.013,57.725,51.013z M57.725,34.735c-1.297,0-2.437,0.286-3.482,0.874
			c-1.038,0.584-1.833,1.363-2.429,2.387c-0.597,1.025-0.887,2.144-0.887,3.42c0,1.275,0.29,2.392,0.887,3.417
			c0.596,1.024,1.391,1.805,2.429,2.387c1.046,0.59,2.186,0.874,3.482,0.874c1.298,0,2.437-0.284,3.483-0.873
			c1.037-0.582,1.832-1.362,2.43-2.389c0.595-1.025,0.885-2.144,0.885-3.417c0-1.276-0.29-2.394-0.887-3.42
			c-0.596-1.026-1.391-1.805-2.428-2.387C60.161,35.021,59.022,34.735,57.725,34.735z"></path>
		<path fill="#fff" d="M83.812,50.94h-0.403c-0.382,0-0.742-0.178-0.977-0.479l-9.944-12.853v12.097
			c0,0.683-0.552,1.234-1.233,1.234h-0.475c-0.682,0-1.234-0.551-1.234-1.234V33.122c0-0.682,0.553-1.234,1.234-1.234h0.403
			c0.382,0,0.743,0.177,0.976,0.479l9.946,12.854V33.122c0-0.682,0.552-1.234,1.233-1.234h0.474c0.682,0,1.233,0.553,1.233,1.234
			v16.584C85.045,50.389,84.493,50.94,83.812,50.94z"></path>
		<path fill="#fff" d="M90.588,50.94h-0.475c-0.681,0-1.234-0.551-1.234-1.234V33.122c0-0.682,0.554-1.234,1.234-1.234h10.686
			c0.683,0,1.234,0.553,1.234,1.234v0.449c0,0.682-0.552,1.234-1.234,1.234h-8.977V40.3h7.911c0.681,0,1.233,0.553,1.233,1.232
			v0.451c0,0.682-0.553,1.234-1.233,1.234h-7.911v6.489C91.822,50.389,91.27,50.94,90.588,50.94z"></path>
		<path fill="#fff" d="M105.49,50.94h-0.475c-0.681,0-1.234-0.551-1.234-1.234V33.122c0-0.682,0.554-1.234,1.234-1.234h0.475
			c0.682,0,1.234,0.553,1.234,1.234v16.584C106.725,50.389,106.172,50.94,105.49,50.94z"></path>
		<path fill="#fff" d="M124.171,50.94c0,0-0.007,0.002-0.011,0h-0.593c-0.396,0-0.769-0.189-1.001-0.511l-3.776-5.243
			c-0.428,0.045-0.89,0.069-1.383,0.069H113.5v4.451c0,0.683-0.553,1.234-1.234,1.234h-0.473c-0.682,0-1.234-0.551-1.234-1.234
			V33.122c0-0.682,0.553-1.234,1.234-1.234h5.614c2.324,0,4.199,0.578,5.574,1.717c1.444,1.199,2.177,2.87,2.177,4.966
			c0,1.608-0.449,2.985-1.335,4.098c-0.544,0.682-1.224,1.234-2.031,1.65l3.291,4.558c0.199,0.217,0.322,0.511,0.322,0.83
			C125.405,50.389,124.853,50.94,124.171,50.94z M113.5,42.336h3.956c1.619,0,2.847-0.341,3.648-1.016
			c0.747-0.626,1.111-1.526,1.111-2.75c0-1.223-0.364-2.123-1.111-2.752c-0.802-0.673-2.03-1.014-3.648-1.014H113.5V42.336z"></path>
		<path fill="#fff" d="M155.481,49.972c-4.007,0-7.225-1.254-9.565-3.728c-2.295-2.425-3.458-5.872-3.458-10.244V21.161
			c0-1.757,1.423-3.179,3.18-3.179h0.73c1.756,0,3.18,1.422,3.18,3.179v14.8c0,2.517,0.509,4.343,1.51,5.428
			c0.947,1.03,2.395,1.527,4.424,1.527c2.03,0,3.477-0.498,4.423-1.525c1.003-1.088,1.51-2.912,1.51-5.431v-14.8
			c0-1.757,1.426-3.179,3.182-3.179h0.729c1.758,0,3.181,1.422,3.181,3.179V36c0,4.372-1.164,7.819-3.459,10.245
			C162.706,48.717,159.488,49.972,155.481,49.972z"></path>
		<path fill="#fff" d="M145.104,50.94h-0.474c-0.682,0-1.233-0.551-1.233-1.234v-10.92l-5.254,9.188
			c-0.219,0.385-0.628,0.621-1.071,0.621h-0.284c-0.442,0-0.85-0.236-1.07-0.619l-5.254-9.158v10.889
			c0,0.683-0.552,1.234-1.233,1.234h-0.474c-0.683,0-1.233-0.551-1.233-1.234V33.122c0-0.682,0.551-1.234,1.233-1.234h0.402
			c0.444,0,0.853,0.238,1.072,0.622l6.699,11.725l6.7-11.725c0.22-0.384,0.629-0.622,1.071-0.622h0.402
			c0.683,0,1.233,0.553,1.233,1.234v16.584C146.338,50.389,145.787,50.94,145.104,50.94z"></path>
	</g>
</g>
<g id="Mark_up">
</g>
</svg>